<svg width="101" height="100" viewBox="0 0 101 100" fill="none" xmlns="http://www.w3.org/2000/svg">
<path d="M0.000544651 0H24.1886V12.094H0.000544651V0ZM43.5615 55.767L39.1942 47.8159L39.866 46.9199C40.9861 45.3522 42.218 43.8962 43.4498 42.6644C43.4498 42.5527 43.5615 42.5527 43.674 42.4402L43.7857 42.3285C45.0175 41.0967 46.4734 39.9765 48.0412 38.7447L48.9371 38.0729L56.7757 42.5518C57.6716 42.1042 58.5676 41.7675 59.4634 41.4317L61.927 32.6971L63.0472 32.4729C64.9508 32.137 66.7426 32.0253 68.5345 32.0253H68.9821H70.1022L70.1007 15.7897H46.0246V35.9465L35.1623 22.844L24.3001 35.9459V15.7891L0 15.7899V70.2131H33.0347C32.923 69.4288 32.923 68.6454 32.923 67.9737V67.5261C32.923 65.7342 33.1471 63.9423 33.483 62.0388L33.7072 60.9186L42.4418 58.455C42.7769 57.4466 43.1128 56.5514 43.5611 55.7673L43.5615 55.767ZM46.0251 0H70.2132V12.094H46.0251V0ZM42.4413 25.8678V0H27.8834V25.8678L35.1618 17.1332L42.4413 25.8678ZM100.56 63.9417L92.273 61.5904L91.9371 60.6945C91.4895 59.3509 90.9295 58.0067 90.3694 56.7747L89.9218 55.8788L94.1773 48.376C93.3931 47.2558 92.4979 46.3607 91.7137 45.4646L91.3779 45.1288C90.4819 44.2328 89.586 43.4493 88.4665 42.6652L80.9637 46.8083L80.0678 46.3607C78.8359 45.6889 77.6042 45.2406 76.148 44.793L75.2521 44.4571L72.9 36.0585C71.5565 35.8343 70.3247 35.8343 69.0929 35.7226H68.6453C67.4134 35.7226 66.1817 35.8343 64.8381 35.9468L62.4861 44.2336L61.5901 44.5695C60.2466 45.0171 58.9024 45.5772 57.6704 46.1372L56.7744 46.5848L49.2716 42.3293C48.1515 43.1135 47.2563 44.0087 46.3603 44.7929L46.0244 45.1288C45.1284 46.0247 44.345 46.9207 43.5608 48.0401L47.7039 55.6545L47.1439 56.5512C46.4721 57.7831 46.0237 59.1266 45.5761 60.471L45.2403 61.3661L36.9534 63.7182C36.7292 65.0617 36.7292 66.2935 36.6175 67.5254V67.9729C36.6175 69.2048 36.7292 70.4365 36.8417 71.7801L45.1286 74.1321L45.4644 75.0281C45.912 76.4841 46.4721 77.7159 47.0322 78.9479L47.4797 79.8438L43.2242 87.3466C44.0085 88.4667 44.9036 89.3619 45.6878 90.2579L46.0237 90.5938C46.9197 91.4898 47.8156 92.2732 48.935 93.0574L56.5494 88.9143L57.4454 89.3619C58.6772 90.0337 59.909 90.482 61.3651 90.9296L62.2611 91.2655L64.6131 99.6641C65.9566 99.8883 67.1885 99.8883 68.4203 100H68.8679C70.0997 100 71.3315 99.8883 72.6751 99.7758L75.0271 91.489L75.923 91.1531C77.2666 90.7055 78.6108 90.1454 79.8428 89.5854L80.7388 89.1378L88.2415 93.3933C89.3617 92.609 90.2568 91.7139 91.1529 90.9297L91.4888 90.5938C92.3847 89.6978 93.1682 88.8019 93.9524 87.6825L89.8092 80.0673L90.2568 79.1713C90.9286 77.9395 91.377 76.596 91.8245 75.2516L92.1604 74.3556L100.447 72.0036C100.671 70.6601 100.671 69.4282 100.783 68.1964V67.7488C100.784 66.5178 100.784 65.286 100.56 63.9417H100.56ZM68.757 86.338C66.405 86.338 64.0538 85.8904 61.8143 84.882L67.861 78.4987C68.7569 78.7228 69.6528 78.8345 70.4363 78.8345C76.5955 78.8345 81.6345 73.7956 81.6345 67.6364C81.6345 66.8521 81.5228 66.0686 81.4103 65.1728L80.7386 61.9257L74.356 68.1973L70.8848 67.1896L69.9888 63.83L76.2596 57.5592L73.1241 56.7749C65.7331 54.983 59.2382 60.5821 59.2382 67.6372C59.2382 68.5331 59.3499 69.5407 59.574 70.4367L52.7431 77.156C51.1754 74.3565 50.2795 71.221 50.2795 67.9731C50.2795 57.7826 58.5664 49.6081 68.6446 49.6081C78.7225 49.6081 87.0096 57.8949 87.0096 67.9731C87.0096 78.0519 78.8351 86.3381 68.7572 86.3381L68.757 86.338Z" fill="#FF744B"/>
</svg>
