<svg width="93" height="100" viewBox="0 0 93 100" fill="none" xmlns="http://www.w3.org/2000/svg">
<path d="M89.9635 52.7074C85.0667 45.5869 79.1186 40.8804 72.8601 37.9316H72.4122V37.7246C56.8604 30.6041 39.4825 34.0693 31.3959 37.7939C33.137 39.5526 34.6718 41.6216 35.9817 43.9837L32.9813 45.6732C31.4127 42.863 29.5161 40.5178 27.3264 38.7251C21.9986 34.3979 15.9473 34.0184 12.8439 34.2077L17.6714 45.4661L16.4645 46.2589C11.74 49.4139 8.46421 55.8793 8.43051 55.9486L7.96561 56.8969H0V68.3107C11.3792 81.1208 21.1367 84.5344 21.2411 84.5691L22.4133 84.9654V99.9999H28.0682L31.5858 89.4659L32.9998 89.6729C33.1198 89.6899 45.0339 91.3794 51.7233 91.3794C58.6197 91.3794 65.5509 89.5521 70.1366 88.0174L71.4813 87.5695L78.5848 100H82.3263C81.4473 95.6728 80.0333 86.3102 83.0506 81.8107L83.7918 80.6901C87.5848 75.1382 96.4294 62.1212 89.9639 52.7081L89.9635 52.7074ZM22.4137 60.3452C19.5688 60.3452 17.2413 58.0177 17.2413 55.1728C17.2413 52.3279 19.5688 50.0005 22.4137 50.0005C25.2586 50.0005 27.586 52.3279 27.586 55.1728C27.586 58.0177 25.2586 60.3452 22.4137 60.3452ZM81.0691 58.9659C79.6036 51.6215 68.724 43.104 56.896 43.104V39.6558C69.3612 39.6558 82.4996 48.5349 84.4464 58.2762L81.0691 58.9659Z" fill="#FF744B"/>
<path d="M37.9307 10.3454H39.6548C42.4997 10.3454 44.8271 8.01791 44.8271 5.17302V3.4489H62.0683V5.17302C62.0683 8.01791 64.3957 10.3454 67.2406 10.3454H68.9647V32.7589C70.1201 33.1383 71.2754 33.5694 72.413 34.035V0H34.4824V32.8272C35.5862 32.4654 36.7238 32.1206 37.9307 31.8273V10.3454Z" fill="#FF744B"/>
<path d="M58.7935 6.89709H48.1039C47.4143 10.276 44.7588 12.9315 41.3799 13.6211V31.0694C48.6212 29.7247 57.121 29.6039 65.5175 31.7421V13.6212C62.1386 12.9315 59.4831 10.276 58.7935 6.89711V6.89709Z" fill="#FF744B"/>
</svg>
