<svg width="113" height="100" viewBox="0 0 113 100" fill="none" xmlns="http://www.w3.org/2000/svg">
<path d="M56.1669 0L2.15527 20.2643C0.444699 20.8983 -0.427102 22.7987 0.206919 24.5093C0.51107 25.3351 1.13226 26.0051 1.93316 26.371C2.73406 26.7369 3.64741 26.7682 4.47141 26.4577L9.32283 24.6383V96.7088C9.32928 98.5254 10.803 99.9955 12.6196 99.999H22.2V28.8511C22.2065 27.0354 23.6746 25.5609 25.4902 25.5543H86.8183C88.634 25.5607 90.1021 27.0353 90.1085 28.8511V99.999H99.6889C101.503 99.9926 102.972 98.5226 102.979 96.7088V24.6383L107.837 26.4577C108.66 26.7682 109.574 26.7369 110.374 26.371C111.175 26.0051 111.797 25.3351 112.102 24.5093C112.738 22.8043 111.875 20.9065 110.173 20.2643L56.1669 0ZM28.8072 32.1682V36.1874H83.503V32.1682H28.8072ZM28.8072 42.7744V46.7937H83.503V42.7744H28.8072ZM28.8072 53.4064V100H35.3168V86.0002C35.3103 84.1661 36.7978 82.6768 38.6329 82.6841H44.0973V68.4715C44.0908 66.6466 45.5627 65.1619 47.3875 65.1553H64.9226C66.7475 65.1618 68.2204 66.6465 68.2128 68.4715V82.6841H73.6708C75.5049 82.6776 76.9943 84.1661 76.987 86.0002V100H83.503V53.4064H28.8072ZM50.7036 71.7609V82.6834H61.6067V71.7609H50.7036ZM41.9295 89.2961V99.9991H52.8519V89.2961H41.9295ZM59.4582 89.2961V99.9991H70.3806V89.2961H59.4582Z" fill="#FF744B"/>
</svg>
