<svg width="94" height="100" viewBox="0 0 94 100" fill="none" xmlns="http://www.w3.org/2000/svg">
<path d="M73.7342 24.0486V0H0V84.1847H51.1971V100L68.9856 89.2242L86.8098 100V65.6522C90.9794 61.3561 93.4531 55.6977 93.7755 49.7202C94.0971 43.7427 92.2455 37.8501 88.5625 33.1312C84.8787 28.4123 79.6124 25.1864 73.7352 24.0474L73.7342 24.0486ZM13.9921 38.6095H35.764V45.5769H13.9921V38.6095ZM40.4086 65.3163H13.9921V58.3489L40.4086 58.3497V65.3163ZM46.2145 25.8366H13.9921V18.8692H46.2145V25.8366ZM68.9858 66.2556C64.2507 66.2467 59.7133 64.3571 56.3714 61.003C53.0287 57.6497 51.1553 53.105 51.1625 48.3699C51.1698 43.6348 53.057 39.0965 56.4095 35.753C59.762 32.4086 64.3051 30.5335 69.0401 30.5385C73.7752 30.5434 78.315 32.429 81.6602 35.7797C85.0054 39.1314 86.8829 43.6736 86.8796 48.4087C86.8707 53.1471 84.9811 57.6885 81.6262 61.0345C78.2704 64.3814 73.7251 66.2587 68.9858 66.2556Z" fill="#FF744B"/>
</svg>
