<svg width="80" height="68" viewBox="0 0 80 68" fill="none" xmlns="http://www.w3.org/2000/svg">
<path fill-rule="evenodd" clip-rule="evenodd" d="M51.705 0L70.9235 8.77127L79.6662 27.9903L39.9678 67.6886L11.9775 39.6984L51.705 0ZM42.5927 18.7587C41.5131 19.1034 40.5379 19.7163 39.7584 20.5393L39.7294 20.5246C38.5068 21.6199 37.7915 23.1727 37.7553 24.8135C37.8102 26.3703 38.4541 27.8486 39.5555 28.95C40.6569 30.0515 42.1351 30.6943 43.691 30.7492C45.3318 30.7016 46.8794 29.9759 47.9653 28.7461C48.7893 27.9667 49.4021 26.9915 49.7458 25.9118C50.0429 24.945 50.0429 23.9109 49.7458 22.944C49.1019 20.9585 47.5461 19.4026 45.5616 18.7587C44.5937 18.4616 43.5606 18.4616 42.5927 18.7587ZM51.898 47.2222C52.722 46.4439 53.3349 45.4687 53.6786 44.388L53.6786 44.3879C53.9809 43.4221 53.9861 42.389 53.6942 41.4201C53.047 39.4315 51.4839 37.8756 49.4943 37.2348C48.5275 36.9377 47.4933 36.9377 46.5265 37.2348C45.4458 37.5785 44.4706 38.1913 43.6911 39.0164C42.4613 40.1024 41.7367 41.6499 41.688 43.2896C41.7429 44.8465 42.3869 46.3247 43.4882 47.4262C44.5896 48.5276 46.0678 49.1705 47.6237 49.2264C49.2645 49.1777 50.8121 48.452 51.898 47.2222ZM31.0473 34.4305L34.7575 38.1406L60.6094 33.2576L56.8847 29.5475L31.0473 34.4305ZM46.0066 23.7753C45.4332 25.1086 44.3711 26.1707 43.0388 26.7442L43.0387 26.7442C42.6443 26.8953 42.1982 26.8001 41.9 26.5019C41.6019 26.2038 41.5067 25.7576 41.6578 25.3632C42.2323 24.032 43.2944 22.9699 44.6267 22.3954C45.0201 22.2442 45.4662 22.3395 45.7644 22.6376C46.0625 22.9357 46.1577 23.3819 46.0066 23.7753ZM48.5885 40.946C47.2562 41.5195 46.1941 42.5816 45.6206 43.9138C45.4695 44.3083 45.5647 44.7544 45.8629 45.0526C46.161 45.3507 46.6072 45.4459 47.0006 45.2948C48.3328 44.7203 49.395 43.6582 49.9684 42.3259C50.1195 41.9325 50.0253 41.4864 49.7272 41.1882C49.428 40.8901 48.9829 40.7948 48.5885 40.946ZM39.6984 0.311382L44.8329 2.64161L7.77722 39.6989L32.042 63.9628L27.9903 68L0 40.0256L39.6984 0.311382Z" fill="white"/>
</svg>
