<svg width="85" height="68" viewBox="0 0 85 68" fill="none" xmlns="http://www.w3.org/2000/svg">
<path fill-rule="evenodd" clip-rule="evenodd" d="M42.3325 10.9619C43.6691 10.9619 44.6495 9.89268 44.6495 8.64494V2.317C44.6495 0.980432 43.5802 0 42.3325 0C40.9959 0 40.0155 1.06927 40.0155 2.317V8.64494C40.0155 9.89261 40.9959 10.9619 42.3325 10.9619ZM32.8858 12.8336C31.9944 12.8336 31.103 12.299 30.7467 11.4075L28.3409 5.52536C27.8063 4.36726 28.4298 3.03003 29.5885 2.49539C30.7466 1.96079 32.0839 2.58429 32.6185 3.74306L35.0249 9.62524C35.5595 10.7833 34.9361 12.1206 33.7773 12.6552C33.51 12.7447 33.1531 12.8336 32.8858 12.8336ZM51.6908 12.8337C51.4235 12.8337 51.0667 12.7442 50.7993 12.6553H50.7993C49.6411 12.1207 49.017 10.7834 49.5522 9.62529L51.9587 3.74311C52.4044 2.58434 53.8299 1.96081 54.9887 2.49544C56.1474 2.94121 56.771 4.36664 56.2363 5.52541L53.8299 11.4076C53.4731 12.299 52.5823 12.8337 51.6908 12.8337ZM20.1406 31.4597L32.8853 19.785H51.7784L64.5231 31.4597H20.1406ZM49.1953 49.4624H55.3449V54.4531H49.1953V49.4624ZM19.1609 11.4074C19.785 11.0512 20.587 11.1401 21.1216 11.5858L29.4101 17.7348L14.8832 31.0141L0.980368 23.7954C0.356216 23.4385 0 22.8151 0 22.102C0 21.3889 0.445115 20.7647 1.06927 20.4085L19.1609 11.4074ZM16.8437 66.1281C16.8437 67.1974 17.7352 68 18.7156 68H65.8609C66.9302 68 67.7327 67.1085 67.7327 66.1281V35.2921H16.8444L16.8437 66.1281ZM45.4517 47.5017C45.4517 46.4325 46.3432 45.6299 47.3236 45.6299H57.3051C58.3743 45.6299 59.1769 46.5213 59.1769 47.5017V56.3249C59.1769 57.3942 58.2855 58.1968 57.3051 58.1968L47.323 58.1962C46.2537 58.1962 45.4511 57.3047 45.4511 56.3243L45.4517 47.5017ZM27.3601 45.6299H38.2329C39.3022 45.6299 40.1048 46.5213 40.1048 47.5017C40.1048 48.571 39.2133 49.3736 38.2329 49.3736L27.3601 49.373C26.2908 49.373 25.4882 48.4815 25.4882 47.5011C25.4882 46.5214 26.2902 45.6299 27.3601 45.6299ZM27.3601 54.4531H38.2329C39.3022 54.4531 40.1048 55.3445 40.1048 56.3249C40.1048 57.3942 39.2133 58.1968 38.2329 58.1968L27.3601 58.1962C26.2908 58.1962 25.4882 57.3047 25.4882 56.3243C25.4882 55.255 26.2902 54.4531 27.3601 54.4531ZM65.5931 11.4077L83.5957 20.4088L83.5957 20.4087C84.2193 20.7656 84.665 21.3891 84.665 22.1028C84.7539 22.8159 84.3088 23.44 83.6846 23.7962L69.7818 31.0149L55.2549 17.7357L63.6325 11.5861C64.167 11.1404 64.969 11.0515 65.5931 11.4077Z" fill="white"/>
</svg>
