<svg width="61" height="78" viewBox="0 0 61 78" fill="none" xmlns="http://www.w3.org/2000/svg">
<path fill-rule="evenodd" clip-rule="evenodd" d="M57.5282 12.5786C57.5282 19.5266 51.895 25.1591 44.9477 25.1591C38.0004 25.1591 32.3685 19.5272 32.3691 12.5786C32.3691 5.63193 38.001 0 44.9477 0C51.8944 0 57.5282 5.6313 57.5282 12.5786ZM43.9981 14.4184L40.586 11.6128L38.3595 14.319L44.7899 19.6051L52.4984 7.82867L49.5677 5.91018L43.9981 14.4184ZM59.6088 37.1891C60.2552 37.6473 60.6847 38.3328 60.8167 39.1185L60.8157 39.1179C60.9458 39.9013 60.7668 40.6894 60.3104 41.3364L52.6702 52.1157C52.4301 52.453 52.0519 52.6326 51.6683 52.6326C51.422 52.6326 51.1752 52.5599 50.9595 52.4066C50.4072 52.0149 50.2777 51.2506 50.6681 50.6976L58.3083 39.919C58.4177 39.7644 58.4116 39.6068 58.3975 39.5255C58.3847 39.4455 58.3401 39.2958 58.191 39.1907L57.7694 38.8913L48.9324 51.3594V65.5809H38.8538L34.4609 71.7785C34.3864 71.883 34.2954 71.9759 34.1921 72.0528L26.8031 77.5534C26.5862 77.7147 26.3284 77.7953 26.0712 77.7953C25.8225 77.7953 25.5744 77.7208 25.3618 77.5693C24.928 77.262 24.7417 76.7109 24.8999 76.2038L27.6438 67.4107C27.6823 67.2873 27.7391 67.1712 27.8136 67.0667L28.8682 65.5796H0V6.10875L31.4004 6.10814C30.4589 8.07184 29.9157 10.2615 29.9157 12.5801C29.9157 20.8697 36.6585 27.6129 44.9468 27.6129C46.3276 27.6129 47.6602 27.4095 48.931 27.0594V37.2723L52.2858 32.5391C53.1174 31.3666 54.4407 30.6658 55.8264 30.6658C56.6505 30.6658 57.4356 30.9139 58.0985 31.3831C59.0009 32.0233 59.5789 32.9966 59.7261 34.1245C59.8508 35.0732 59.6369 36.027 59.1543 36.8677L59.6088 37.1891ZM25.1428 21.1129H11.0978V23.7407H25.1428V21.1129ZM37.8342 27.8445H11.0978V30.4723H37.8342V27.8445ZM37.8339 34.5761H11.096V37.2033L37.8339 37.2039V34.5761ZM11.0979 46.8382H21.5619V44.2104H11.0979V46.8382ZM37.8337 44.2104H27.3697V46.8382H37.8337V44.2104ZM56.681 33.3829C55.9736 32.8807 54.8573 33.1538 54.2891 33.956L44.615 47.6049L47.2593 49.4782L56.9315 35.8304C57.2284 35.4113 57.3574 34.9182 57.295 34.4411C57.2382 33.9987 57.0201 33.623 56.681 33.3829ZM28.3675 73.3316L32.5734 70.2003L45.8411 51.4778L43.1968 49.6046L29.9291 68.3266L28.3675 73.3316Z" fill="white"/>
</svg>
