<svg width="68" height="68" viewBox="0 0 68 68" fill="none" xmlns="http://www.w3.org/2000/svg">
<path fill-rule="evenodd" clip-rule="evenodd" d="M40.93 0C38.1595 0 35.5003 1.10091 33.5413 3.05986L3.48911 33.1157C-1.16304 37.7678 -1.16304 45.3629 3.48911 50.0148L17.9852 64.5109C22.6373 69.163 30.2324 69.163 34.8843 64.5109L64.9401 34.4575C66.8991 32.4985 68 29.8408 68 27.0703V5.32498C68 2.405 65.5966 0.00206427 62.6771 0.00206427L40.93 0ZM50.2984 8.75896C52.5946 8.75896 54.8912 9.62888 56.6335 11.3716C60.1179 14.856 60.1179 20.5584 56.6335 24.0438C53.1491 27.5282 47.4477 27.5282 43.9637 24.0438C40.4793 20.5594 40.4793 14.8571 43.9637 11.3716C45.706 9.62936 48.0026 8.75896 50.2988 8.75896H50.2984ZM45.1785 31.3725V31.372C45.6291 31.372 46.0617 31.5513 46.3804 31.8701C47.044 32.5341 47.044 33.6104 46.3804 34.274L23.3164 57.338C22.6528 58.0016 21.5766 58.0016 20.9125 57.338C20.2489 56.6744 20.2489 55.5982 20.9125 54.9341L43.9765 31.8701C44.2953 31.5513 44.7274 31.372 45.1784 31.372L45.1785 31.3725ZM24.4107 31.3924V31.3919C24.949 31.307 25.495 31.4849 25.8797 31.8701C26.5438 32.5341 26.5438 33.6104 25.8797 34.274L13.0666 47.087V47.0875C12.4026 47.7511 11.3263 47.7511 10.6627 47.0875C9.99864 46.4234 9.99864 45.3472 10.6627 44.6836L23.4746 31.8693C23.7283 31.6151 24.0561 31.4476 24.4109 31.3912L24.4107 31.3924ZM34.6609 31.3938L34.6613 31.3934C35.1988 31.3084 35.7442 31.4858 36.1289 31.8701C36.7925 32.5341 36.7925 33.6104 36.1289 34.274L18.1916 52.2113C17.5275 52.8749 16.4518 52.8749 15.7877 52.2113C15.1241 51.5477 15.1241 50.4715 15.7877 49.8074L33.725 31.8701C33.9788 31.6163 34.3065 31.4493 34.6613 31.3934L34.6609 31.3938Z" fill="white"/>
</svg>
