<svg width="68" height="68" viewBox="0 0 68 68" fill="none" xmlns="http://www.w3.org/2000/svg">
<path fill-rule="evenodd" clip-rule="evenodd" d="M67.6604 33.3207C68.0182 33.6785 68.0182 34.2509 67.6604 34.6801L63.6535 39.4012C63.3676 39.6872 63.2957 40.045 63.4389 40.4028L65.2285 46.2694C65.443 46.7699 65.2285 47.3423 64.7274 47.5569L59.2187 50.347C58.8608 50.4897 58.6463 50.8475 58.6463 51.2053L58.1452 57.3579C58.0739 57.9302 57.6447 58.288 57.1437 58.3594L50.9912 58.8604C50.6338 58.8604 50.276 59.075 50.1328 59.4328L47.3427 64.9416C47.1281 65.3713 46.5563 65.5859 46.0552 65.4426L40.1886 63.5109C39.8308 63.4395 39.473 63.5109 39.1871 63.7255L34.5372 67.7317C34.1793 68.0895 33.6069 68.0895 33.1778 67.7317L28.5279 63.7255C28.2419 63.4395 27.8841 63.3677 27.5263 63.5109L21.6597 65.4426C21.1592 65.6572 20.5868 65.4426 20.3722 64.9416L17.5821 59.4328C17.4394 59.075 17.0816 58.8604 16.7238 58.8604L10.5713 58.3594C9.99887 58.288 9.64106 57.8589 9.5697 57.3579L9.06867 51.2053C9.06867 50.848 8.85409 50.4902 8.49628 50.347L2.9875 47.5569C2.55783 47.3423 2.34325 46.7704 2.48647 46.2694L4.48911 40.2596C4.56047 39.9018 4.48911 39.544 4.27452 39.258L0.268355 34.6081C-0.0894518 34.2503 -0.0894518 33.6779 0.268355 33.2487L4.27452 28.5988C4.56047 28.3129 4.63233 27.9551 4.48911 27.5973L2.55737 21.7307C2.34279 21.2302 2.55737 20.6578 3.0584 20.4432L8.56718 17.6531C8.92499 17.5104 9.13958 17.1525 9.13958 16.7947L9.6406 10.5703C9.6406 10.0698 10.0698 9.6406 10.5703 9.6406L16.7947 9.13958C17.152 9.13958 17.5099 8.92499 17.6531 8.56718L20.4432 3.0584C20.6577 2.62873 21.2296 2.41415 21.7307 2.55737L27.5973 4.48911C27.9551 4.56047 28.3129 4.48911 28.5988 4.27452L33.3207 0.268355C33.6785 -0.0894518 34.2509 -0.0894518 34.6801 0.268355L39.4014 4.27503C39.6873 4.56098 40.0451 4.63284 40.4029 4.48962L46.1981 2.55737C46.6986 2.34279 47.271 2.55737 47.4856 3.0584L50.2757 8.56718C50.4184 8.92499 50.7762 9.13958 51.134 9.13958L57.3585 9.6406C57.859 9.6406 58.2882 10.0698 58.2882 10.5703L58.7892 16.7947C58.7892 17.152 59.0038 17.5099 59.3616 17.6531L64.8704 20.4432C65.3001 20.6577 65.5146 21.2296 65.3714 21.7307L63.4397 27.5973C63.3683 27.9551 63.4397 28.3129 63.6543 28.5988L67.6604 33.3207ZM11.0715 33.9646C11.0715 46.6277 21.3736 56.8578 33.9646 56.8578C46.5557 56.8578 56.8577 46.6277 56.8577 33.9646C56.8577 21.3016 46.6276 11.0715 33.9646 11.0715C21.3016 11.0715 11.0715 21.3016 11.0715 33.9646ZM14.3624 33.9647C14.3624 23.1618 23.1621 14.3624 33.9647 14.3624C44.767 14.3624 53.5669 23.1624 53.5669 33.9647C53.5669 44.767 44.767 53.5669 33.9647 53.5669C23.1624 53.5669 14.3624 44.7672 14.3624 33.9647ZM40.6896 35.5386L45.1968 30.7453H45.1969C45.5542 30.3162 45.3396 29.6005 44.8396 29.5292L38.3292 28.2417C38.1141 28.2417 37.8996 28.0985 37.8282 27.8839L34.609 22.0892C34.3231 21.5882 33.6074 21.5882 33.3215 22.0892L30.1023 27.8839C30.0304 28.0985 29.8158 28.1703 29.6013 28.2417L23.0909 29.5292C22.5185 29.6724 22.3039 30.3161 22.6617 30.7453L27.1689 35.5386C27.3122 35.6818 27.3835 35.8964 27.3835 36.111L26.5965 42.6927C26.5252 43.2651 27.0971 43.6943 27.5981 43.4797L33.6074 40.6896C33.822 40.6182 34.0366 40.6182 34.2512 40.6896L40.2605 43.4797C40.761 43.6943 41.3334 43.2651 41.262 42.6927L40.475 36.111C40.475 35.8964 40.5464 35.6818 40.6896 35.5386Z" fill="white"/>
</svg>
