<svg width="70" height="64" viewBox="0 0 70 64" fill="none" xmlns="http://www.w3.org/2000/svg">
<path fill-rule="evenodd" clip-rule="evenodd" d="M62.1386 22.4988L69.8491 38.7807L69.8489 38.779C69.9394 38.9906 69.9999 39.2169 69.9999 39.4579L69.8794 55.4839C69.8642 56.3138 69.1853 56.978 68.3554 56.978L65.6393 56.9627C65.0656 60.6598 61.8516 63.4965 58.0039 63.4965C54.171 63.4965 50.9723 60.7046 50.3686 57.0379H28.3082C27.6892 60.6899 24.5057 63.4965 20.6729 63.4965C16.7947 63.4965 13.5807 60.6294 13.0223 56.9023H1.50882C0.678909 56.9023 0 56.2234 0 55.3934V1.50882C0 0.67891 0.678869 0 1.50882 0H42.341C43.1709 0 43.8498 0.678869 43.8498 1.50882L43.8503 52.4968H46.1738L46.4001 23.0425C46.4154 22.2125 47.0942 21.5483 47.9242 21.5483L60.7808 21.6388C61.3691 21.6388 61.897 21.9704 62.1386 22.4988ZM56.5407 25.6831C55.8765 25.6831 55.3334 26.211 55.3334 26.8752L55.2581 37.0908C55.2581 37.755 55.786 38.2981 56.4501 38.2981L63.4665 38.3586C64.3265 38.3586 64.9149 37.4687 64.568 36.6687L60.011 26.4078C59.8152 25.9852 59.3926 25.6984 58.9247 25.6984L56.5407 25.6831ZM17.4579 55.7414C17.4579 57.5217 18.9062 58.9553 20.6719 58.9553C22.4375 58.9553 23.8858 57.5218 23.8858 55.7414C23.8858 53.9611 22.4523 52.5274 20.6719 52.5274C18.8916 52.5274 17.4579 53.961 17.4579 55.7414ZM54.775 55.7414C54.775 57.5217 56.2233 58.9553 57.9889 58.9553C59.754 58.9553 61.2029 57.5218 61.2029 55.7414C61.2029 53.9611 59.7694 52.5274 57.9889 52.5274C56.2086 52.5274 54.775 53.961 54.775 55.7414ZM30.2001 20.5433C30.2002 20.5432 30.2003 20.5431 30.2004 20.543L30.2 20.5433L30.2001 20.5433ZM23.4818 27.2336C25.7223 25.0046 27.9618 22.7765 30.2001 20.5433L33.6158 23.9316C31.4935 26.0489 29.3724 28.1586 27.2522 30.2674C25.0862 32.4216 22.9212 34.575 20.7569 36.7344L19.1999 38.2847L17.5046 36.8842L10.2715 30.8829L13.3607 27.1946L18.8986 31.7955C20.4268 30.2731 21.9546 28.7531 23.4818 27.2336Z" fill="white"/>
</svg>
