<svg width="16" height="14" viewBox="0 0 16 14" fill="none" xmlns="http://www.w3.org/2000/svg">
<path fill-rule="evenodd" clip-rule="evenodd" d="M9.16158 13.4046C9.33517 13.5457 9.54322 13.6146 9.74997 13.6146L9.75008 13.6148C10.0199 13.6148 10.2884 13.4971 10.4711 13.2722L15.3997 7.23038C15.6734 6.89427 15.6799 6.41446 15.4153 6.07119L11.0061 0.362289C10.6928 -0.0433973 10.1076 -0.121405 9.69934 0.194556C9.29105 0.509236 9.21629 1.09501 9.53161 1.50199L12.7813 5.70894L0.932304 5.70837C0.416737 5.70837 0 6.12642 0 6.64068C0 7.1556 0.416737 7.57298 0.932304 7.57298H12.7157L9.0283 12.0933C8.70323 12.4925 8.76175 13.0795 9.16158 13.4046Z" fill="#101010"/>
</svg>
