<svg width="17" height="12" viewBox="0 0 17 12" fill="none" xmlns="http://www.w3.org/2000/svg">
<path d="M15.8857 0.00908458C15.6672 0.0394429 15.4658 0.140197 15.314 0.294849C12.0214 3.48048 9.02173 6.62715 5.79918 9.77584L1.59295 6.53344L1.59318 6.53322C1.39013 6.37636 1.13081 6.30377 0.872419 6.33149C0.613775 6.35921 0.377464 6.48504 0.214959 6.68105C0.0524786 6.87706 -0.0227182 7.12741 0.00599542 7.37685C0.0347084 7.62653 0.165058 7.85466 0.368095 8.01154L5.26842 11.796C5.45802 11.9407 5.69615 12.0127 5.93749 11.9982C6.17859 11.9836 6.40578 11.8835 6.57512 11.7172C10.0799 8.32655 13.2378 4.9772 16.7025 1.62521C16.9014 1.43887 17.0092 1.17973 16.9994 0.912456C16.9894 0.64495 16.8627 0.393944 16.6503 0.221895C16.4381 0.0496438 16.1603 -0.0277916 15.8858 0.00894966L15.8857 0.00908458Z" fill="#FF744B"/>
</svg>
